<svg width="395" height="378" viewBox="0 0 395 378" fill="none" xmlns="http://www.w3.org/2000/svg">
<path d="M6.5 36.5H109.5M6.5 36.5L29 6.5H99L109.5 36.5M6.5 36.5V158M109.5 36.5V73M6.5 158H109.5M6.5 158L26 189H98L109.5 158M109.5 158V122M388.5 36.5H285.5M388.5 36.5L366 6.5H296L285.5 36.5M388.5 36.5V158M285.5 36.5V73M388.5 158H285.5M388.5 158L369 189H297L285.5 158M285.5 158V122M109.5 73H285.5M109.5 73V122M285.5 73V122M109.5 122H160.5M285.5 122H231M160.5 122L171 142C171 142 170 184 195 184M160.5 122H231M195 184C220 184 220 142 220 142L231 122M195 184V238.5M195 238.5H185.5L172 289.5H177.5M195 238.5H206L220 289.5H213.5M177.5 289.5V308M177.5 289.5H213.5M177.5 308H213.5M177.5 308H147C147 308 153.451 329.091 169.5 341.557M213.5 289.5V308M213.5 308H244.5C244.5 308 237.304 329.091 220.816 341.557M169.5 341.557C176.233 346.788 184.656 350.5 195 350.5C205.344 350.5 213.898 346.788 220.816 341.557M169.5 341.557H133M133 341.557H23.5V371.5H133V341.557ZM220.816 341.557H259M259 341.557H369V371.5H259V341.557Z" stroke="#D32D2D" stroke-width="12" stroke-linejoin="round"/>
</svg>
